<mxfile host="app.diagrams.net" modified="2023-09-05T12:12:57.223Z" agent="Mozilla/5.0 (Macintosh; Intel Mac OS X 10_15_7) AppleWebKit/537.36 (KHTML, like Gecko) Chrome/116.0.0.0 Safari/537.36" etag="jZF2S8TI6eiHRu_9_6vm" version="21.7.2" type="github">
  <diagram name="Page-1" id="0783ab3e-0a74-02c8-0abd-f7b4e66b4bec">
    <mxGraphModel dx="1366" dy="752" grid="0" gridSize="10" guides="1" tooltips="1" connect="1" arrows="1" fold="1" page="0" pageScale="1" pageWidth="850" pageHeight="1100" background="none" math="0" shadow="0">
      <root>
        <mxCell id="0" />
        <mxCell id="1" parent="0" />
        <mxCell id="2nViGCEAdRGkjLKJpimA-1" value="FMS" style="rounded=0;whiteSpace=wrap;html=1;fillColor=#ffe6cc;strokeColor=#d79b00;" vertex="1" parent="1">
          <mxGeometry x="181" y="74" width="120" height="60" as="geometry" />
        </mxCell>
        <mxCell id="2nViGCEAdRGkjLKJpimA-2" value="AS(桥龙引导服务)" style="rounded=0;whiteSpace=wrap;html=1;fillColor=#ffe6cc;strokeColor=#d79b00;" vertex="1" parent="1">
          <mxGeometry x="632" y="76" width="120" height="60" as="geometry" />
        </mxCell>
        <mxCell id="2nViGCEAdRGkjLKJpimA-4" value="" style="endArrow=classic;html=1;rounded=0;exitX=0.5;exitY=1;exitDx=0;exitDy=0;" edge="1" parent="1" source="2nViGCEAdRGkjLKJpimA-1">
          <mxGeometry width="50" height="50" relative="1" as="geometry">
            <mxPoint x="240" y="154" as="sourcePoint" />
            <mxPoint x="240" y="836" as="targetPoint" />
          </mxGeometry>
        </mxCell>
        <mxCell id="2nViGCEAdRGkjLKJpimA-5" value="" style="endArrow=classic;html=1;rounded=0;" edge="1" parent="1">
          <mxGeometry width="50" height="50" relative="1" as="geometry">
            <mxPoint x="693.5" y="136" as="sourcePoint" />
            <mxPoint x="693.5" y="835" as="targetPoint" />
          </mxGeometry>
        </mxCell>
        <mxCell id="2nViGCEAdRGkjLKJpimA-7" value="" style="endArrow=classic;html=1;rounded=0;" edge="1" parent="1">
          <mxGeometry width="50" height="50" relative="1" as="geometry">
            <mxPoint x="240" y="267" as="sourcePoint" />
            <mxPoint x="692" y="267" as="targetPoint" />
          </mxGeometry>
        </mxCell>
        <mxCell id="2nViGCEAdRGkjLKJpimA-9" value="车辆到位后&lt;br&gt;主动请求引导" style="text;strokeColor=none;align=center;fillColor=none;html=1;verticalAlign=middle;whiteSpace=wrap;rounded=0;" vertex="1" parent="1">
          <mxGeometry x="111.5" y="194" width="150" height="20" as="geometry" />
        </mxCell>
        <mxCell id="2nViGCEAdRGkjLKJpimA-10" value="请求引导接口（可接收引导, trans_id= 新产生，status = 3）" style="text;strokeColor=none;align=center;fillColor=none;html=1;verticalAlign=middle;whiteSpace=wrap;rounded=0;" vertex="1" parent="1">
          <mxGeometry x="294.5" y="243" width="331.5" height="20" as="geometry" />
        </mxCell>
        <mxCell id="2nViGCEAdRGkjLKJpimA-11" value="" style="endArrow=classic;html=1;rounded=0;" edge="1" parent="1">
          <mxGeometry width="50" height="50" relative="1" as="geometry">
            <mxPoint x="241" y="200" as="sourcePoint" />
            <mxPoint x="690" y="200" as="targetPoint" />
          </mxGeometry>
        </mxCell>
        <mxCell id="2nViGCEAdRGkjLKJpimA-12" value="请求引导接口（预到达，status = 4）" style="text;strokeColor=none;align=center;fillColor=none;html=1;verticalAlign=middle;whiteSpace=wrap;rounded=0;" vertex="1" parent="1">
          <mxGeometry x="346" y="174" width="199" height="20" as="geometry" />
        </mxCell>
        <mxCell id="2nViGCEAdRGkjLKJpimA-14" value="" style="endArrow=classic;html=1;rounded=0;" edge="1" parent="1">
          <mxGeometry width="50" height="50" relative="1" as="geometry">
            <mxPoint x="692" y="334" as="sourcePoint" />
            <mxPoint x="240" y="334" as="targetPoint" />
          </mxGeometry>
        </mxCell>
        <mxCell id="2nViGCEAdRGkjLKJpimA-15" value="引导对位指令（已到位，trans_id=FMS trans id，in_position=1, offset = 0）" style="text;strokeColor=none;align=center;fillColor=none;html=1;verticalAlign=middle;whiteSpace=wrap;rounded=0;" vertex="1" parent="1">
          <mxGeometry x="260" y="307" width="406" height="20" as="geometry" />
        </mxCell>
        <mxCell id="2nViGCEAdRGkjLKJpimA-16" value="" style="endArrow=classic;html=1;rounded=0;" edge="1" parent="1">
          <mxGeometry width="50" height="50" relative="1" as="geometry">
            <mxPoint x="691" y="391" as="sourcePoint" />
            <mxPoint x="241" y="391" as="targetPoint" />
          </mxGeometry>
        </mxCell>
        <mxCell id="2nViGCEAdRGkjLKJpimA-17" value="引导对位指令（需要对位，trans_id=FMS trans id，in_position=2, offset = 引导值）" style="text;strokeColor=none;align=center;fillColor=none;html=1;verticalAlign=middle;whiteSpace=wrap;rounded=0;" vertex="1" parent="1">
          <mxGeometry x="243" y="365" width="449" height="20" as="geometry" />
        </mxCell>
        <mxCell id="2nViGCEAdRGkjLKJpimA-18" value="" style="shape=curlyBracket;whiteSpace=wrap;html=1;rounded=1;flipH=1;labelPosition=right;verticalLabelPosition=middle;align=left;verticalAlign=middle;" vertex="1" parent="1">
          <mxGeometry x="692" y="322" width="20" height="76" as="geometry" />
        </mxCell>
        <mxCell id="2nViGCEAdRGkjLKJpimA-19" value="两种情况：&lt;br&gt;1. 已到位&lt;br&gt;2. 需要对位" style="text;strokeColor=none;align=left;fillColor=none;html=1;verticalAlign=middle;whiteSpace=wrap;rounded=0;" vertex="1" parent="1">
          <mxGeometry x="719" y="333.5" width="109" height="53" as="geometry" />
        </mxCell>
        <mxCell id="2nViGCEAdRGkjLKJpimA-20" value="" style="endArrow=classic;html=1;rounded=0;" edge="1" parent="1">
          <mxGeometry width="50" height="50" relative="1" as="geometry">
            <mxPoint x="241.5" y="458" as="sourcePoint" />
            <mxPoint x="692" y="458" as="targetPoint" />
          </mxGeometry>
        </mxCell>
        <mxCell id="2nViGCEAdRGkjLKJpimA-21" value="请求引导接口（可接收引导, trans_id= 新产生，status = 1）" style="text;strokeColor=none;align=center;fillColor=none;html=1;verticalAlign=middle;whiteSpace=wrap;rounded=0;" vertex="1" parent="1">
          <mxGeometry x="296" y="434" width="331.5" height="20" as="geometry" />
        </mxCell>
        <mxCell id="2nViGCEAdRGkjLKJpimA-22" value="" style="endArrow=classic;html=1;rounded=0;" edge="1" parent="1">
          <mxGeometry width="50" height="50" relative="1" as="geometry">
            <mxPoint x="693.5" y="525" as="sourcePoint" />
            <mxPoint x="241.5" y="525" as="targetPoint" />
          </mxGeometry>
        </mxCell>
        <mxCell id="2nViGCEAdRGkjLKJpimA-23" value="引导对位指令（已到位，trans_id=FMS trans id，in_position=1, offset = 0）" style="text;strokeColor=none;align=center;fillColor=none;html=1;verticalAlign=middle;whiteSpace=wrap;rounded=0;" vertex="1" parent="1">
          <mxGeometry x="261.5" y="498" width="406" height="20" as="geometry" />
        </mxCell>
        <mxCell id="2nViGCEAdRGkjLKJpimA-24" value="" style="endArrow=classic;html=1;rounded=0;" edge="1" parent="1">
          <mxGeometry width="50" height="50" relative="1" as="geometry">
            <mxPoint x="692.5" y="582" as="sourcePoint" />
            <mxPoint x="242.5" y="582" as="targetPoint" />
          </mxGeometry>
        </mxCell>
        <mxCell id="2nViGCEAdRGkjLKJpimA-25" value="引导对位指令（需要对位，trans_id=FMS trans id，in_position=2, offset = 引导值）" style="text;strokeColor=none;align=center;fillColor=none;html=1;verticalAlign=middle;whiteSpace=wrap;rounded=0;" vertex="1" parent="1">
          <mxGeometry x="244.5" y="556" width="449" height="20" as="geometry" />
        </mxCell>
        <mxCell id="2nViGCEAdRGkjLKJpimA-26" value="" style="shape=curlyBracket;whiteSpace=wrap;html=1;rounded=1;labelPosition=left;verticalLabelPosition=middle;align=right;verticalAlign=middle;" vertex="1" parent="1">
          <mxGeometry x="216" y="443" width="20" height="165" as="geometry" />
        </mxCell>
        <mxCell id="2nViGCEAdRGkjLKJpimA-27" value="" style="shape=curlyBracket;whiteSpace=wrap;html=1;rounded=1;flipH=1;labelPosition=right;verticalLabelPosition=middle;align=left;verticalAlign=middle;" vertex="1" parent="1">
          <mxGeometry x="693.5" y="516" width="20" height="76" as="geometry" />
        </mxCell>
        <mxCell id="2nViGCEAdRGkjLKJpimA-28" value="两种情况：&lt;br&gt;1. 已到位&lt;br&gt;2. 需要对位" style="text;strokeColor=none;align=left;fillColor=none;html=1;verticalAlign=middle;whiteSpace=wrap;rounded=0;" vertex="1" parent="1">
          <mxGeometry x="720.5" y="527.5" width="109" height="53" as="geometry" />
        </mxCell>
        <mxCell id="2nViGCEAdRGkjLKJpimA-30" value="若车辆未到位&lt;br&gt;则再次发送请求引导&lt;br&gt;循环对位流程" style="text;strokeColor=none;align=center;fillColor=none;html=1;verticalAlign=middle;whiteSpace=wrap;rounded=0;" vertex="1" parent="1">
          <mxGeometry x="97" y="507.5" width="150" height="20" as="geometry" />
        </mxCell>
        <mxCell id="2nViGCEAdRGkjLKJpimA-33" value="" style="endArrow=classic;html=1;rounded=0;" edge="1" parent="1">
          <mxGeometry width="50" height="50" relative="1" as="geometry">
            <mxPoint x="241.5" y="672" as="sourcePoint" />
            <mxPoint x="692" y="672" as="targetPoint" />
          </mxGeometry>
        </mxCell>
        <mxCell id="2nViGCEAdRGkjLKJpimA-34" value="请求引导接口（车辆已到位, trans_id= 新产生，status = 2）" style="text;strokeColor=none;align=center;fillColor=none;html=1;verticalAlign=middle;whiteSpace=wrap;rounded=0;" vertex="1" parent="1">
          <mxGeometry x="296" y="648" width="331.5" height="20" as="geometry" />
        </mxCell>
        <mxCell id="2nViGCEAdRGkjLKJpimA-36" value="" style="endArrow=classic;html=1;rounded=0;" edge="1" parent="1">
          <mxGeometry width="50" height="50" relative="1" as="geometry">
            <mxPoint x="241" y="715" as="sourcePoint" />
            <mxPoint x="241" y="778" as="targetPoint" />
            <Array as="points">
              <mxPoint x="186" y="715" />
              <mxPoint x="186" y="778" />
            </Array>
          </mxGeometry>
        </mxCell>
        <mxCell id="2nViGCEAdRGkjLKJpimA-37" value="作业完成后&lt;br&gt;车辆自行判断可驶离条件" style="text;strokeColor=none;align=center;fillColor=none;html=1;verticalAlign=middle;whiteSpace=wrap;rounded=0;" vertex="1" parent="1">
          <mxGeometry x="43" y="733" width="150" height="20" as="geometry" />
        </mxCell>
        <mxCell id="2nViGCEAdRGkjLKJpimA-38" value="" style="endArrow=none;dashed=1;html=1;dashPattern=1 3;strokeWidth=2;rounded=0;" edge="1" parent="1">
          <mxGeometry width="50" height="50" relative="1" as="geometry">
            <mxPoint x="24" y="163" as="sourcePoint" />
            <mxPoint x="860" y="161" as="targetPoint" />
          </mxGeometry>
        </mxCell>
        <mxCell id="2nViGCEAdRGkjLKJpimA-39" value="" style="endArrow=none;dashed=1;html=1;dashPattern=1 3;strokeWidth=2;rounded=0;" edge="1" parent="1">
          <mxGeometry width="50" height="50" relative="1" as="geometry">
            <mxPoint x="33" y="691" as="sourcePoint" />
            <mxPoint x="869" y="689" as="targetPoint" />
          </mxGeometry>
        </mxCell>
      </root>
    </mxGraphModel>
  </diagram>
</mxfile>
